<?xml version="1.0" standalone="no"?>
<!DOCTYPE svg PUBLIC "-//W3C//DTD SVG 20010904//EN"
 "http://www.w3.org/TR/2001/REC-SVG-20010904/DTD/svg10.dtd">
<svg version="1.0" xmlns="http://www.w3.org/2000/svg"
 width="43.000000pt" height="42.000000pt" viewBox="0 0 43.000000 42.000000"
 preserveAspectRatio="xMidYMid meet">

<g transform="translate(0.000000,42.000000) scale(0.100000,-0.100000)"
fill="#000000" stroke="none">
<path d="M146 406 c-22 -8 -51 -23 -65 -33 -33 -24 -81 -118 -81 -158 0 -122
114 -226 233 -211 70 8 134 49 166 108 l26 47 -75 79 c-41 44 -80 80 -86 81
-6 0 -20 -10 -33 -22 -20 -22 -20 -25 -5 -38 9 -8 24 -13 33 -11 9 1 39 -20
66 -48 l49 -50 -20 -27 c-12 -16 -36 -39 -55 -51 -28 -20 -44 -23 -94 -20 -70
4 -103 24 -135 81 -27 48 -24 129 6 170 29 40 85 67 138 67 74 0 129 -38 159
-110 8 -19 24 -44 37 -55 l22 -20 -7 45 c-21 135 -158 221 -279 176z"/>
<path d="M140 205 l-54 -55 35 0 c23 0 42 7 54 20 l18 20 23 -21 c15 -14 32
-19 53 -17 l32 3 -53 53 -54 52 -54 -55z"/>
</g>
</svg>
